<svg width="25" height="29" viewBox="0 0 25 29" fill="none" xmlns="http://www.w3.org/2000/svg">
<path d="M12.5 0.0417481C13.7391 0.0417027 14.9301 0.521678 15.8229 1.38092C16.7157 2.24017 17.2409 3.41187 17.2883 4.65008L17.2917 4.83342H23.3333C23.5998 4.83428 23.8557 4.9372 24.0486 5.12102C24.2415 5.30484 24.3566 5.55558 24.3703 5.82166C24.3839 6.08775 24.2951 6.34896 24.1221 6.55157C23.949 6.75417 23.7049 6.88277 23.44 6.91091L23.3333 6.91675H22.4242L21.005 25.7251C20.9377 26.6157 20.5365 27.448 19.8816 28.0553C19.2267 28.6627 18.3665 29.0001 17.4733 29.0001H7.52666C6.63351 29.0001 5.77333 28.6627 5.11842 28.0553C4.46351 27.448 4.06225 26.6157 3.995 25.7251L2.575 6.91675H1.66667C1.40878 6.91687 1.16003 6.82132 0.968529 6.6486C0.77703 6.47589 0.656407 6.23827 0.63 5.98175L0.625 5.87508C0.625 5.33592 1.035 4.89175 1.56 4.83925L1.66667 4.83342H7.70833C7.70833 3.56259 8.21317 2.34381 9.11178 1.4452C10.0104 0.546583 11.2292 0.0417481 12.5 0.0417481ZM20.335 6.91675H4.665L6.07333 25.5684C6.10106 25.935 6.26618 26.2775 6.53566 26.5275C6.80513 26.7775 7.15908 26.9165 7.52666 26.9167H17.4733C17.8411 26.9167 18.1952 26.7778 18.4649 26.5278C18.7345 26.2778 18.8998 25.9351 18.9275 25.5684L20.3358 6.91675H20.335ZM15.2083 11.2917C15.7475 11.2917 16.1917 11.7017 16.245 12.2267L16.25 12.3334V21.5001C16.2512 21.7679 16.1493 22.026 15.9652 22.2206C15.7812 22.4152 15.5292 22.5315 15.2617 22.5452C14.9942 22.559 14.7317 22.4691 14.5287 22.2943C14.3257 22.1196 14.1978 21.8733 14.1717 21.6067L14.1667 21.5001V12.3334C14.1667 11.7584 14.6333 11.2917 15.2083 11.2917ZM9.79166 11.2917C10.3308 11.2917 10.775 11.7017 10.8283 12.2267L10.8333 12.3334V21.5001C10.8346 21.7679 10.7326 22.026 10.5486 22.2206C10.3645 22.4152 10.1126 22.5315 9.84507 22.5452C9.57756 22.559 9.31504 22.4691 9.11205 22.2943C8.90905 22.1196 8.78118 21.8733 8.755 21.6067L8.75 21.5001V12.3334C8.75 11.7584 9.21666 11.2917 9.79166 11.2917ZM12.5 2.12508C11.8082 2.12504 11.1426 2.38971 10.6398 2.86481C10.137 3.33991 9.835 3.98941 9.79583 4.68008L9.79166 4.83342H15.2083C15.2083 4.11512 14.923 3.42625 14.4151 2.91833C13.9072 2.41042 13.2183 2.12508 12.5 2.12508Z" fill="#B7AFAF"/>
</svg>
