<svg width="15" height="8" viewBox="0 0 15 8" fill="none" xmlns="http://www.w3.org/2000/svg">
<path d="M13.7497 7.62491C13.5063 7.62538 13.2704 7.54062 13.083 7.38532L7.49965 2.71866L1.9059 7.21866C1.79935 7.30518 1.67675 7.3698 1.54515 7.40879C1.41354 7.44778 1.27553 7.46038 1.13904 7.44586C1.00256 7.43134 0.870283 7.38999 0.749828 7.32418C0.629373 7.25838 0.523111 7.16941 0.43715 7.06241C0.350623 6.95586 0.286007 6.83326 0.247016 6.70165C0.208024 6.57005 0.195426 6.43204 0.209946 6.29555C0.224466 6.15906 0.265818 6.02679 0.331624 5.90633C0.39743 5.78588 0.486393 5.67962 0.5934 5.59366L6.8434 0.562406C7.02979 0.409196 7.26358 0.325439 7.50486 0.325439C7.74613 0.325439 7.97993 0.409196 8.16632 0.562406L14.4163 5.77074C14.5218 5.85819 14.609 5.96558 14.6729 6.08678C14.7368 6.20797 14.7762 6.34058 14.7888 6.47702C14.8013 6.61345 14.7869 6.75103 14.7462 6.88187C14.7055 7.0127 14.6394 7.13423 14.5517 7.23949C14.4548 7.35898 14.3326 7.45552 14.1939 7.52216C14.0552 7.5888 13.9035 7.62389 13.7497 7.62491Z" fill="white"/>
</svg>
