<svg width="12" height="7" viewBox="0 0 12 7" fill="none" xmlns="http://www.w3.org/2000/svg">
<path d="M10.9995 6.49997C10.8048 6.50035 10.6161 6.43254 10.4662 6.30831L5.99952 2.57497L1.52452 6.17497C1.43929 6.24419 1.3412 6.29589 1.23592 6.32708C1.13064 6.35827 1.02023 6.36835 0.911039 6.35674C0.801849 6.34512 0.696031 6.31204 0.599667 6.2594C0.503303 6.20675 0.418294 6.13558 0.349525 6.04997C0.280303 5.96473 0.22861 5.86665 0.197417 5.76137C0.166224 5.65609 0.156146 5.54568 0.167762 5.43649C0.179378 5.3273 0.212459 5.22148 0.265104 5.12512C0.317749 5.02875 0.388919 4.94374 0.474525 4.87497L5.47452 0.849974C5.62364 0.727406 5.81067 0.6604 6.00369 0.6604C6.19671 0.6604 6.38375 0.727406 6.53286 0.849974L11.5329 5.01664C11.6172 5.0866 11.687 5.17251 11.7381 5.26947C11.7892 5.36643 11.8207 5.47252 11.8308 5.58166C11.8409 5.69081 11.8293 5.80087 11.7968 5.90554C11.7642 6.01021 11.7114 6.10743 11.6412 6.19164C11.5636 6.28723 11.4659 6.36446 11.3549 6.41778C11.244 6.47109 11.1226 6.49916 10.9995 6.49997Z" fill="#767676"/>
</svg>
